<?xml version="1.0" encoding="UTF-8"?>
<svg width="800px" height="690px" viewBox="0 0 800 690" version="1.1" xmlns="http://www.w3.org/2000/svg" xmlns:xlink="http://www.w3.org/1999/xlink">
    <!-- Generator: Sketch 54.1 (76490) - https://sketchapp.com -->
    <title>dark-timeline</title>
    <desc>Created with Sketch.</desc>
    <defs>
        <path d="M141.5,598 L141.5,629" id="path-1"></path>
        <filter x="-450.0%" y="-12.9%" width="1000.0%" height="138.7%" filterUnits="objectBoundingBox" id="filter-2">
            <feMorphology radius="0.5" operator="dilate" in="SourceAlpha" result="shadowSpreadOuter1"></feMorphology>
            <feOffset dx="0" dy="3" in="shadowSpreadOuter1" result="shadowOffsetOuter1"></feOffset>
            <feMorphology radius="1" operator="erode" in="SourceAlpha" result="shadowInner"></feMorphology>
            <feOffset dx="0" dy="3" in="shadowInner" result="shadowInner"></feOffset>
            <feComposite in="shadowOffsetOuter1" in2="shadowInner" operator="out" result="shadowOffsetOuter1"></feComposite>
            <feGaussianBlur stdDeviation="1" in="shadowOffsetOuter1" result="shadowBlurOuter1"></feGaussianBlur>
            <feColorMatrix values="0 0 0 0 0   0 0 0 0 0   0 0 0 0 0  0 0 0 0.1 0" type="matrix" in="shadowBlurOuter1" result="shadowMatrixOuter1"></feColorMatrix>
            <feMorphology radius="0.5" operator="dilate" in="SourceAlpha" result="shadowSpreadOuter2"></feMorphology>
            <feOffset dx="0" dy="1" in="shadowSpreadOuter2" result="shadowOffsetOuter2"></feOffset>
            <feMorphology radius="1" operator="erode" in="SourceAlpha" result="shadowInner"></feMorphology>
            <feOffset dx="0" dy="1" in="shadowInner" result="shadowInner"></feOffset>
            <feComposite in="shadowOffsetOuter2" in2="shadowInner" operator="out" result="shadowOffsetOuter2"></feComposite>
            <feGaussianBlur stdDeviation="1" in="shadowOffsetOuter2" result="shadowBlurOuter2"></feGaussianBlur>
            <feColorMatrix values="0 0 0 0 0   0 0 0 0 0   0 0 0 0 0  0 0 0 0.2 0" type="matrix" in="shadowBlurOuter2" result="shadowMatrixOuter2"></feColorMatrix>
            <feMerge>
                <feMergeNode in="shadowMatrixOuter1"></feMergeNode>
                <feMergeNode in="shadowMatrixOuter2"></feMergeNode>
            </feMerge>
        </filter>
        <path d="M251,609.5 L384,609.5" id="path-3"></path>
        <filter x="-4.1%" y="-400.0%" width="108.3%" height="1300.0%" filterUnits="objectBoundingBox" id="filter-4">
            <feMorphology radius="1" operator="dilate" in="SourceAlpha" result="shadowSpreadOuter1"></feMorphology>
            <feOffset dx="0" dy="3" in="shadowSpreadOuter1" result="shadowOffsetOuter1"></feOffset>
            <feMorphology radius="1" operator="erode" in="SourceAlpha" result="shadowInner"></feMorphology>
            <feOffset dx="0" dy="3" in="shadowInner" result="shadowInner"></feOffset>
            <feComposite in="shadowOffsetOuter1" in2="shadowInner" operator="out" result="shadowOffsetOuter1"></feComposite>
            <feGaussianBlur stdDeviation="1" in="shadowOffsetOuter1" result="shadowBlurOuter1"></feGaussianBlur>
            <feColorMatrix values="0 0 0 0 0   0 0 0 0 0   0 0 0 0 0  0 0 0 0.1 0" type="matrix" in="shadowBlurOuter1" result="shadowMatrixOuter1"></feColorMatrix>
            <feMorphology radius="1" operator="dilate" in="SourceAlpha" result="shadowSpreadOuter2"></feMorphology>
            <feOffset dx="0" dy="1" in="shadowSpreadOuter2" result="shadowOffsetOuter2"></feOffset>
            <feMorphology radius="1" operator="erode" in="SourceAlpha" result="shadowInner"></feMorphology>
            <feOffset dx="0" dy="1" in="shadowInner" result="shadowInner"></feOffset>
            <feComposite in="shadowOffsetOuter2" in2="shadowInner" operator="out" result="shadowOffsetOuter2"></feComposite>
            <feGaussianBlur stdDeviation="1" in="shadowOffsetOuter2" result="shadowBlurOuter2"></feGaussianBlur>
            <feColorMatrix values="0 0 0 0 0   0 0 0 0 0   0 0 0 0 0  0 0 0 0.2 0" type="matrix" in="shadowBlurOuter2" result="shadowMatrixOuter2"></feColorMatrix>
            <feMerge>
                <feMergeNode in="shadowMatrixOuter1"></feMergeNode>
                <feMergeNode in="shadowMatrixOuter2"></feMergeNode>
            </feMerge>
        </filter>
        <path d="M285,601.5 L383.794922,601.5" id="path-5"></path>
        <filter x="-5.6%" y="-400.0%" width="110.9%" height="1300.0%" filterUnits="objectBoundingBox" id="filter-6">
            <feMorphology radius="1" operator="dilate" in="SourceAlpha" result="shadowSpreadOuter1"></feMorphology>
            <feOffset dx="0" dy="3" in="shadowSpreadOuter1" result="shadowOffsetOuter1"></feOffset>
            <feMorphology radius="1" operator="erode" in="SourceAlpha" result="shadowInner"></feMorphology>
            <feOffset dx="0" dy="3" in="shadowInner" result="shadowInner"></feOffset>
            <feComposite in="shadowOffsetOuter1" in2="shadowInner" operator="out" result="shadowOffsetOuter1"></feComposite>
            <feGaussianBlur stdDeviation="1" in="shadowOffsetOuter1" result="shadowBlurOuter1"></feGaussianBlur>
            <feColorMatrix values="0 0 0 0 0   0 0 0 0 0   0 0 0 0 0  0 0 0 0.1 0" type="matrix" in="shadowBlurOuter1" result="shadowMatrixOuter1"></feColorMatrix>
            <feMorphology radius="1" operator="dilate" in="SourceAlpha" result="shadowSpreadOuter2"></feMorphology>
            <feOffset dx="0" dy="1" in="shadowSpreadOuter2" result="shadowOffsetOuter2"></feOffset>
            <feMorphology radius="1" operator="erode" in="SourceAlpha" result="shadowInner"></feMorphology>
            <feOffset dx="0" dy="1" in="shadowInner" result="shadowInner"></feOffset>
            <feComposite in="shadowOffsetOuter2" in2="shadowInner" operator="out" result="shadowOffsetOuter2"></feComposite>
            <feGaussianBlur stdDeviation="1" in="shadowOffsetOuter2" result="shadowBlurOuter2"></feGaussianBlur>
            <feColorMatrix values="0 0 0 0 0   0 0 0 0 0   0 0 0 0 0  0 0 0 0.2 0" type="matrix" in="shadowBlurOuter2" result="shadowMatrixOuter2"></feColorMatrix>
            <feMerge>
                <feMergeNode in="shadowMatrixOuter1"></feMergeNode>
                <feMergeNode in="shadowMatrixOuter2"></feMergeNode>
            </feMerge>
        </filter>
        <path d="M384,612 L384,636 C384,641.522847 388.477153,646 394,646 L426,646" id="path-7"></path>
        <filter x="-12.6%" y="-12.6%" width="125.2%" height="137.1%" filterUnits="objectBoundingBox" id="filter-8">
            <feMorphology radius="0.8" operator="dilate" in="SourceAlpha" result="shadowSpreadOuter1"></feMorphology>
            <feOffset dx="0" dy="3" in="shadowSpreadOuter1" result="shadowOffsetOuter1"></feOffset>
            <feMorphology radius="1" operator="erode" in="SourceAlpha" result="shadowInner"></feMorphology>
            <feOffset dx="0" dy="3" in="shadowInner" result="shadowInner"></feOffset>
            <feComposite in="shadowOffsetOuter1" in2="shadowInner" operator="out" result="shadowOffsetOuter1"></feComposite>
            <feGaussianBlur stdDeviation="1" in="shadowOffsetOuter1" result="shadowBlurOuter1"></feGaussianBlur>
            <feColorMatrix values="0 0 0 0 0   0 0 0 0 0   0 0 0 0 0  0 0 0 0.1 0" type="matrix" in="shadowBlurOuter1" result="shadowMatrixOuter1"></feColorMatrix>
            <feMorphology radius="0.8" operator="dilate" in="SourceAlpha" result="shadowSpreadOuter2"></feMorphology>
            <feOffset dx="0" dy="1" in="shadowSpreadOuter2" result="shadowOffsetOuter2"></feOffset>
            <feMorphology radius="1" operator="erode" in="SourceAlpha" result="shadowInner"></feMorphology>
            <feOffset dx="0" dy="1" in="shadowInner" result="shadowInner"></feOffset>
            <feComposite in="shadowOffsetOuter2" in2="shadowInner" operator="out" result="shadowOffsetOuter2"></feComposite>
            <feGaussianBlur stdDeviation="1" in="shadowOffsetOuter2" result="shadowBlurOuter2"></feGaussianBlur>
            <feColorMatrix values="0 0 0 0 0   0 0 0 0 0   0 0 0 0 0  0 0 0 0.2 0" type="matrix" in="shadowBlurOuter2" result="shadowMatrixOuter2"></feColorMatrix>
            <feMerge>
                <feMergeNode in="shadowMatrixOuter1"></feMergeNode>
                <feMergeNode in="shadowMatrixOuter2"></feMergeNode>
            </feMerge>
        </filter>
        <path d="M281.5,607 L281.5,633" id="path-9"></path>
        <filter x="-500.0%" y="-17.3%" width="1100.0%" height="150.0%" filterUnits="objectBoundingBox" id="filter-10">
            <feMorphology radius="1" operator="dilate" in="SourceAlpha" result="shadowSpreadOuter1"></feMorphology>
            <feOffset dx="0" dy="3" in="shadowSpreadOuter1" result="shadowOffsetOuter1"></feOffset>
            <feMorphology radius="1" operator="erode" in="SourceAlpha" result="shadowInner"></feMorphology>
            <feOffset dx="0" dy="3" in="shadowInner" result="shadowInner"></feOffset>
            <feComposite in="shadowOffsetOuter1" in2="shadowInner" operator="out" result="shadowOffsetOuter1"></feComposite>
            <feGaussianBlur stdDeviation="1" in="shadowOffsetOuter1" result="shadowBlurOuter1"></feGaussianBlur>
            <feColorMatrix values="0 0 0 0 0   0 0 0 0 0   0 0 0 0 0  0 0 0 0.1 0" type="matrix" in="shadowBlurOuter1" result="shadowMatrixOuter1"></feColorMatrix>
            <feMorphology radius="1" operator="dilate" in="SourceAlpha" result="shadowSpreadOuter2"></feMorphology>
            <feOffset dx="0" dy="1" in="shadowSpreadOuter2" result="shadowOffsetOuter2"></feOffset>
            <feMorphology radius="1" operator="erode" in="SourceAlpha" result="shadowInner"></feMorphology>
            <feOffset dx="0" dy="1" in="shadowInner" result="shadowInner"></feOffset>
            <feComposite in="shadowOffsetOuter2" in2="shadowInner" operator="out" result="shadowOffsetOuter2"></feComposite>
            <feGaussianBlur stdDeviation="1" in="shadowOffsetOuter2" result="shadowBlurOuter2"></feGaussianBlur>
            <feColorMatrix values="0 0 0 0 0   0 0 0 0 0   0 0 0 0 0  0 0 0 0.2 0" type="matrix" in="shadowBlurOuter2" result="shadowMatrixOuter2"></feColorMatrix>
            <feMerge>
                <feMergeNode in="shadowMatrixOuter1"></feMergeNode>
                <feMergeNode in="shadowMatrixOuter2"></feMergeNode>
            </feMerge>
        </filter>
    </defs>
    <g id="dark-timeline" stroke="none" stroke-width="1" fill="none" fill-rule="evenodd">
        <rect fill="#343434" x="0" y="0" width="800" height="690"></rect>
        <path d="M74.7644935,126 L651.624933,126 C684.570597,126 711.278334,152.707737 711.278334,185.653401 L711.278334,185.653401 C711.278334,218.599065 684.570597,245.306802 651.624933,245.306802 L134.925545,245.306802 C101.699514,245.306802 74.7644935,272.241822 74.7644935,305.467853 L74.7644935,305.467853 C74.7644935,338.693885 101.699514,365.628905 134.925545,365.628905 L628.343883,365.628905 L653.82613,365.628905 C686.506956,365.628905 713,392.121949 713,424.802775 L713,424.802775 C713,457.483601 686.506956,483.976646 653.82613,483.976646 L132,483.976646 C98.862915,483.976646 72,510.839561 72,543.976646 L72,545 C72,578.137085 98.862915,605 132,605 L384,605" id="Path-2-Copy" stroke="#8DD1F0" stroke-width="2"></path>
        <path d="M128,130 L651,130 C681.927946,130 707,155.072054 707,186 L707,186 C707,216.927946 681.927946,242 651,242 L440.17681,242" id="Line-2-Copy" stroke="#C7F464" stroke-width="2" stroke-linecap="square"></path>
        <path d="M403.232179,248 L660.117834,248 C691.532987,248 717,273.467013 717,304.882166 L717,304.882166 C717,336.297318 691.532987,361.764332 660.117834,361.764332 L137.369645,361.764332 L137.369645,361.764332 C104.580696,361.764332 78,388.345027 78,421.133977 L78,425.382166 C78,460.517325 106.482675,489 141.617834,489 L302.282128,489" id="Line-2-Copy-2" stroke="#FF6B6A" stroke-width="2" stroke-linecap="square" transform="translate(397.500000, 368.500000) scale(-1, 1) translate(-397.500000, -368.500000) "></path>
        <text id="2006-copy" font-family="Helvetica" font-size="10" font-weight="normal" fill="#FFFFFF">
            <tspan x="58" y="105">2006</tspan>
        </text>
        <text id="2009-copy" font-family="Helvetica" font-size="10" font-weight="normal" fill="#FFFFFF">
            <tspan x="734" y="190">2009</tspan>
        </text>
        <text id="2015-copy" font-family="Helvetica" font-size="10" font-weight="normal" fill="#FFFFFF">
            <tspan x="735" y="429">2015</tspan>
        </text>
        <text id="2012-copy" font-family="Helvetica" font-size="10" font-weight="normal" fill="#FFFFFF">
            <tspan x="27" y="309">2012</tspan>
        </text>
        <path d="M496.505426,480 L385,480" id="Line-4-Copy" stroke="#D43789" stroke-width="1.6" stroke-linecap="square"></path>
        <path d="M252.331702,602 L133.5,602 C101.743627,602 76,576.256373 76,544.5 L76,544.5 C76,512.743627 101.743627,487 133.5,487 L385,487" id="Line-5-Copy" stroke="#0098D1" stroke-width="2" stroke-linecap="square"></path>
        <text id="Begins-Music-Career!" font-family="HelveticaNeue, Helvetica Neue" font-size="10" font-weight="normal" fill="#FFFFFF">
            <tspan x="127" y="50">Begins</tspan>
            <tspan x="127" y="62">Music</tspan>
            <tspan x="127" y="74">Career!</tspan>
        </text>
        <text id="Content-at-Wpromote" font-family="HelveticaNeue, Helvetica Neue" font-size="10" font-weight="normal" fill="#FFFFFF">
            <tspan x="348.95" y="183">Content at </tspan>
            <tspan x="346.02" y="195" font-family="HelveticaNeue-Bold, Helvetica Neue" font-weight="bold">Wpromote</tspan>
        </text>
        <text id="Ends-Music-Career!" font-family="HelveticaNeue, Helvetica Neue" font-size="10" font-weight="normal" fill="#FFFFFF">
            <tspan x="438" y="171">Ends </tspan>
            <tspan x="438" y="183">Music</tspan>
            <tspan x="438" y="195">Career!</tspan>
        </text>
        <path d="M129,120 L129,86" id="Line-Copy-7" stroke="#DFF6AE" stroke-width="1.6" stroke-linecap="square"></path>
        <path d="M395,241 L395,207" id="Line-Copy-8" stroke="#FF6B6A" stroke-width="1.6" stroke-linecap="square" transform="translate(395.000000, 224.000000) scale(-1, 1) translate(-395.000000, -224.000000) "></path>
        <path d="M493,480 L493,446" id="Line-Copy-9" stroke="#D43789" stroke-width="1.6" stroke-linecap="square" transform="translate(493.000000, 463.000000) scale(-1, 1) translate(-493.000000, -463.000000) "></path>
        <path d="M384,480 L384,446" id="Line-Copy-10" stroke="#0098D1" stroke-width="1.6" stroke-linecap="square" transform="translate(384.000000, 463.000000) scale(-1, -1) translate(-384.000000, -463.000000) "></path>
        <path d="M440,241 L440,207" id="Line-Copy-12" stroke="#DFF6AE" stroke-width="1.6" stroke-linecap="square"></path>
        <path d="M180,359 L180,325" id="Line-Copy-13" stroke="#FD8483" stroke-width="1.6" stroke-linecap="square"></path>
        <circle id="Oval-Copy-6" stroke="#D43789" stroke-width="1.6" fill="#FFFFFF" cx="494" cy="484" r="5.2"></circle>
        <circle id="Oval-Copy-7" stroke="#0098D1" stroke-width="1.6" fill="#FFFFFF" cx="384" cy="484" r="5.2"></circle>
        <circle id="Oval-Copy-9" stroke="#FF6B6A" stroke-width="1.6" fill="#FFFFFF" cx="180" cy="364" r="5.2"></circle>
        <text id="Establishes-Creative" font-family="HelveticaNeue-Light, Helvetica Neue" font-size="10" font-weight="300" fill="#FFFFFF">
            <tspan x="177" y="290">Establishes</tspan>
            <tspan x="177" y="302">Creative Dept.</tspan>
            <tspan x="177" y="314">at </tspan>
            <tspan x="187.93" y="314" font-family="HelveticaNeue-Bold, Helvetica Neue" font-weight="bold">Wpromote</tspan>
        </text>
        <text id="Content-Strategy-at" font-family="HelveticaNeue-Light, Helvetica Neue" font-size="10" font-weight="300" fill="#FFFFFF">
            <tspan x="459.55" y="410">Content </tspan>
            <tspan x="447.13" y="422">Strategy at</tspan>
            <tspan x="461.43" y="434" font-family="HelveticaNeue-Bold, Helvetica Neue" font-weight="bold">Inspire</tspan>
        </text>
        <text id="UX-at-TrueCar" font-family="HelveticaNeue-Light, Helvetica Neue" font-size="10" font-weight="300" fill="#FFFFFF">
            <tspan x="361.48" y="422">UX at</tspan>
            <tspan x="346.29" y="434" font-family="HelveticaNeue-Bold, Helvetica Neue" font-weight="bold">TrueCar</tspan>
        </text>
        <path d="M366,122 L366,88" id="Line-Copy-11" stroke="#F5A623" stroke-width="0.8" stroke-linecap="square" stroke-dasharray="4,4" transform="translate(366.000000, 105.000000) scale(-1, 1) translate(-366.000000, -105.000000) "></path>
        <path d="M69,121.65 L366,121.35" id="Line-3-Copy-4" stroke="#F5A623" stroke-width="0.8" stroke-linecap="square" stroke-dasharray="4,4" transform="translate(217.500000, 121.500000) scale(1, -1) translate(-217.500000, -121.500000) "></path>
        <path d="M182,479 L182,452 L259,452" id="Line-3-Copy-6" stroke="#F5A623" stroke-width="0.8" stroke-linecap="square" stroke-dasharray="4,4" transform="translate(220.500000, 465.500000) scale(1, -1) translate(-220.500000, -465.500000) "></path>
        <path d="M400,523 L400,490 L477,490" id="Line-3-Copy-6" stroke="#F5A623" stroke-width="0.8" stroke-linecap="square" stroke-dasharray="4,4"></path>
        <text id="Graduates-CSULB" font-family="HelveticaNeue-Light, Helvetica Neue" font-size="10" font-weight="300" line-spacing="12" fill="#FFFFFF">
            <tspan x="363" y="64">Graduates </tspan>
            <tspan x="363" y="76">CSULB</tspan>
        </text>
        <text id="UX-at-General-Assemb" font-family="HelveticaNeue-Light, Helvetica Neue" font-size="10" font-weight="300" fill="#FFFFFF">
            <tspan x="399" y="537">UX</tspan>
            <tspan x="399" y="549">at General</tspan>
            <tspan x="399" y="561">Assembly (</tspan>
            <tspan x="445.85" y="561" font-family="HelveticaNeue-Bold, Helvetica Neue" font-weight="bold">GA</tspan>
            <tspan x="460.29" y="561">)</tspan>
        </text>
        <text id="Front-end-Web-Develo" font-family="HelveticaNeue-Light, Helvetica Neue" font-size="10" font-weight="300" fill="#FFFFFF">
            <tspan x="117.81" y="420">Front-end Web </tspan>
            <tspan x="126.14" y="432">Development</tspan>
            <tspan x="157.63" y="444">at </tspan>
            <tspan x="168.56" y="444" font-family="HelveticaNeue-Bold, Helvetica Neue" font-weight="bold">GA</tspan>
        </text>
        <text id="Javascript-at-GA" font-family="HelveticaNeue-Light, Helvetica Neue" font-size="10" font-weight="300" fill="#FFFFFF">
            <tspan x="138" y="644">Javascript</tspan>
            <tspan x="138" y="656">at </tspan>
            <tspan x="148.93" y="656" font-family="HelveticaNeue-Bold, Helvetica Neue" font-weight="bold">GA</tspan>
        </text>
        <g id="Group-4" transform="translate(242.000000, 3.000000)">
            <g id="Group-2" transform="translate(61.000000, 1.000000)" stroke-linecap="square" stroke-width="2">
                <path d="M1.0658141e-14,0.5 L20,0.5" id="Line-6-Copy-2" stroke="#FF6B6A" transform="translate(10.000000, 0.500000) scale(1, -1) translate(-10.000000, -0.500000) "></path>
                <path d="M1.0658141e-14,8.5 L20,8.5" id="Line-6-Copy-2" stroke="#0098D1" transform="translate(10.000000, 8.500000) scale(1, -1) translate(-10.000000, -8.500000) "></path>
                <path d="M1.0658141e-14,4.5 L20,4.5" id="Line-6-Copy-2" stroke="#DD5FA1" transform="translate(10.000000, 4.500000) scale(1, -1) translate(-10.000000, -4.500000) "></path>
                <path d="M23,8.5 L43,8.5" id="Line-6-Copy-2" stroke="#C7F464" transform="translate(33.000000, 8.500000) scale(1, -1) translate(-33.000000, -8.500000) "></path>
                <path d="M23,4.5 L43,4.5" id="Line-6-Copy-2" stroke="#FFEA4E" transform="translate(33.000000, 4.500000) scale(1, -1) translate(-33.000000, -4.500000) "></path>
                <path d="M23,0.5 L43,0.5" id="Line-6-Copy-2" stroke="#F5A623" transform="translate(33.000000, 0.500000) scale(1, -1) translate(-33.000000, -0.500000) "></path>
            </g>
            <path d="M1.0658141e-14,5.5 L20,5.5" id="Line-6-Copy-4" stroke="#8DD1F0" stroke-width="2" stroke-linecap="square" transform="translate(10.000000, 5.500000) scale(1, -1) translate(-10.000000, -5.500000) "></path>
            <path d="M153,5.5 L173,5.5" id="Line-6-Copy-5" stroke="#F5A623" stroke-linecap="square" stroke-dasharray="4,4"></path>
            <g id="Group-3-Copy" transform="translate(232.000000, 5.000000) scale(-1, -1) translate(-232.000000, -5.000000) translate(227.000000, 0.000000)" fill="#FFFFFF" stroke="#8DD1F0" stroke-width="1.6">
                <circle id="Oval-Copy-13" cx="4.77734375" cy="4.70814951" r="3.81538462"></circle>
            </g>
            <path d="M29.576,2.288 L30.12,2.288 L30.12,7.536 L33.32,7.536 L33.32,8 L29.576,8 L29.576,2.288 Z M33.784,2.288 L34.288,2.288 L34.288,3.096 L33.784,3.096 L33.784,2.288 Z M33.784,3.872 L34.288,3.872 L34.288,8 L33.784,8 L33.784,3.872 Z M36.848,4.296 L36.032,4.296 L36.032,8 L35.528,8 L35.528,4.296 L34.824,4.296 L34.824,3.872 L35.528,3.872 L35.528,3.496 C35.528,3.31999912 35.5413332,3.15733408 35.568,3.008 C35.5946668,2.85866592 35.645333,2.7306672 35.72,2.624 C35.794667,2.5173328 35.8973327,2.43466696 36.028,2.376 C36.1586673,2.31733304 36.3253323,2.288 36.528,2.288 C36.602667,2.288 36.6719997,2.29066664 36.736,2.296 C36.8000003,2.30133336 36.8719996,2.30933328 36.952,2.32 L36.952,2.752 C36.8826663,2.74133328 36.818667,2.73200004 36.76,2.724 C36.701333,2.71599996 36.642667,2.712 36.584,2.712 C36.4453326,2.712 36.338667,2.73333312 36.264,2.776 C36.189333,2.81866688 36.1346668,2.87599964 36.1,2.948 C36.0653332,3.02000036 36.0453334,3.10399952 36.04,3.2 C36.0346666,3.29600048 36.032,3.39999944 36.032,3.512 L36.032,3.872 L36.848,3.872 L36.848,4.296 Z M40.296,5.648 C40.2906666,5.45599904 40.2573336,5.27200088 40.196,5.096 C40.1346664,4.91999912 40.0480006,4.76400068 39.936,4.628 C39.8239994,4.49199932 39.6880008,4.38266708 39.528,4.3 C39.3679992,4.21733292 39.1866677,4.176 38.984,4.176 C38.775999,4.176 38.5920008,4.21733292 38.432,4.3 C38.2719992,4.38266708 38.1360006,4.49199932 38.024,4.628 C37.9119994,4.76400068 37.822667,4.92133244 37.756,5.1 C37.689333,5.27866756 37.6453334,5.4613324 37.624,5.648 L40.296,5.648 Z M37.624,6.072 C37.624,6.25333424 37.6493331,6.44133236 37.7,6.636 C37.7506669,6.83066764 37.8319994,7.00533256 37.944,7.16 C38.0560006,7.31466744 38.1973325,7.44266616 38.368,7.544 C38.5386675,7.64533384 38.7439988,7.696 38.984,7.696 C39.3520018,7.696 39.639999,7.60000096 39.848,7.408 C40.056001,7.21599904 40.1999996,6.9600016 40.28,6.64 L40.784,6.64 C40.6773328,7.10933568 40.4813348,7.47199872 40.196,7.728 C39.9106652,7.98400128 39.5066693,8.112 38.984,8.112 C38.658665,8.112 38.3773345,8.05466724 38.14,7.94 C37.9026655,7.82533276 37.7093341,7.668001 37.56,7.468 C37.4106659,7.267999 37.3000004,7.03600132 37.228,6.772 C37.1559996,6.50799868 37.12,6.2293348 37.12,5.936 C37.12,5.66399864 37.1559996,5.39733464 37.228,5.136 C37.3000004,4.87466536 37.4106659,4.64133436 37.56,4.436 C37.7093341,4.23066564 37.9026655,4.06533396 38.14,3.94 C38.3773345,3.81466604 38.658665,3.752 38.984,3.752 C39.3146683,3.752 39.5973322,3.818666 39.832,3.952 C40.0666678,4.085334 40.2573326,4.25999892 40.404,4.476 C40.5506674,4.69200108 40.6559997,4.9399986 40.72,5.22 C40.7840003,5.5000014 40.8106667,5.78399856 40.8,6.072 L37.624,6.072 Z" id="Life" fill="#FFFFFF" fill-rule="nonzero"></path>
            <path d="M114.776,2.288 L115.36,2.288 L116.656,7.288 L116.672,7.288 L118.064,2.288 L118.744,2.288 L120.144,7.288 L120.16,7.288 L121.464,2.288 L122.008,2.288 L120.432,8 L119.856,8 L118.408,2.888 L118.392,2.888 L116.952,8 L116.36,8 L114.776,2.288 Z M124.256,4.176 C124.015999,4.176 123.805334,4.22666616 123.624,4.328 C123.442666,4.42933384 123.292001,4.56266584 123.172,4.728 C123.051999,4.89333416 122.961334,5.08133228 122.9,5.292 C122.838666,5.50266772 122.808,5.71733224 122.808,5.936 C122.808,6.15466776 122.838666,6.36933228 122.9,6.58 C122.961334,6.79066772 123.051999,6.97866584 123.172,7.144 C123.292001,7.30933416 123.442666,7.44266616 123.624,7.544 C123.805334,7.64533384 124.015999,7.696 124.256,7.696 C124.496001,7.696 124.706666,7.64533384 124.888,7.544 C125.069334,7.44266616 125.219999,7.30933416 125.34,7.144 C125.460001,6.97866584 125.550666,6.79066772 125.612,6.58 C125.673334,6.36933228 125.704,6.15466776 125.704,5.936 C125.704,5.71733224 125.673334,5.50266772 125.612,5.292 C125.550666,5.08133228 125.460001,4.89333416 125.34,4.728 C125.219999,4.56266584 125.069334,4.42933384 124.888,4.328 C124.706666,4.22666616 124.496001,4.176 124.256,4.176 Z M124.256,3.752 C124.570668,3.752 124.849332,3.81066608 125.092,3.928 C125.334668,4.04533392 125.538666,4.20266568 125.704,4.4 C125.869334,4.59733432 125.994666,4.82799868 126.08,5.092 C126.165334,5.35600132 126.208,5.63733184 126.208,5.936 C126.208,6.23466816 126.165334,6.51599868 126.08,6.78 C125.994666,7.04400132 125.869334,7.27466568 125.704,7.472 C125.538666,7.66933432 125.334668,7.82533276 125.092,7.94 C124.849332,8.05466724 124.570668,8.112 124.256,8.112 C123.941332,8.112 123.662668,8.05466724 123.42,7.94 C123.177332,7.82533276 122.973334,7.66933432 122.808,7.472 C122.642666,7.27466568 122.517334,7.04400132 122.432,6.78 C122.346666,6.51599868 122.304,6.23466816 122.304,5.936 C122.304,5.63733184 122.346666,5.35600132 122.432,5.092 C122.517334,4.82799868 122.642666,4.59733432 122.808,4.4 C122.973334,4.20266568 123.177332,4.04533392 123.42,3.928 C123.662668,3.81066608 123.941332,3.752 124.256,3.752 Z M126.96,3.872 L127.424,3.872 L127.424,4.84 L127.44,4.84 C127.568001,4.50399832 127.766665,4.24533424 128.036,4.064 C128.305335,3.88266576 128.626665,3.79999992 129,3.816 L129,4.32 C128.770666,4.30933328 128.562668,4.33999964 128.376,4.412 C128.189332,4.48400036 128.028001,4.586666 127.892,4.72 C127.755999,4.853334 127.650667,5.01199908 127.576,5.196 C127.501333,5.38000092 127.464,5.58133224 127.464,5.8 L127.464,8 L126.96,8 L126.96,3.872 Z M129.48,2.288 L129.984,2.288 L129.984,5.872 L132.272,3.872 L132.944,3.872 L131.184,5.4 L133.064,8 L132.432,8 L130.8,5.752 L129.984,6.432 L129.984,8 L129.48,8 L129.48,2.288 Z" id="Work" fill="#FFFFFF" fill-rule="nonzero"></path>
            <path d="M183.968,6.12 C183.962667,6.4133348 184.008,6.65866568 184.104,6.856 C184.2,7.05333432 184.331999,7.21066608 184.5,7.328 C184.668001,7.44533392 184.866666,7.52933308 185.096,7.58 C185.325334,7.63066692 185.570665,7.656 185.832,7.656 C185.981334,7.656 186.143999,7.63466688 186.32,7.592 C186.496001,7.54933312 186.659999,7.4813338 186.812,7.388 C186.964001,7.2946662 187.090666,7.1746674 187.192,7.028 C187.293334,6.8813326 187.344,6.70400104 187.344,6.496 C187.344,6.3359992 187.308,6.19733392 187.236,6.08 C187.164,5.96266608 187.070667,5.8640004 186.956,5.784 C186.841333,5.7039996 186.714667,5.63866692 186.576,5.588 C186.437333,5.53733308 186.301334,5.49600016 186.168,5.464 L184.896,5.152 C184.730666,5.10933312 184.569334,5.05600032 184.412,4.992 C184.254666,4.92799968 184.117334,4.8426672 184,4.736 C183.882666,4.6293328 183.788,4.49866744 183.716,4.344 C183.644,4.18933256 183.608,4.00000112 183.608,3.776 C183.608,3.63733264 183.634666,3.4746676 183.688,3.288 C183.741334,3.1013324 183.841333,2.92533416 183.988,2.76 C184.134667,2.59466584 184.335999,2.45466724 184.592,2.34 C184.848001,2.22533276 185.175998,2.168 185.576,2.168 C185.858668,2.168 186.127999,2.20533296 186.384,2.28 C186.640001,2.35466704 186.863999,2.46666592 187.056,2.616 C187.248001,2.76533408 187.401333,2.95066556 187.516,3.172 C187.630667,3.39333444 187.688,3.6506652 187.688,3.944 L187.144,3.944 C187.133333,3.72533224 187.084,3.53466748 186.996,3.372 C186.908,3.20933252 186.793334,3.07333388 186.652,2.964 C186.510666,2.85466612 186.348001,2.77200028 186.164,2.716 C185.979999,2.65999972 185.786668,2.632 185.584,2.632 C185.397332,2.632 185.217334,2.6519998 185.044,2.692 C184.870666,2.7320002 184.718667,2.79599956 184.588,2.884 C184.457333,2.97200044 184.352,3.08799928 184.272,3.232 C184.192,3.37600072 184.152,3.5546656 184.152,3.768 C184.152,3.901334 184.174666,4.01733284 184.22,4.116 C184.265334,4.21466716 184.328,4.29866632 184.408,4.368 C184.488,4.43733368 184.579999,4.49333312 184.684,4.536 C184.788001,4.57866688 184.898666,4.6133332 185.016,4.64 L186.408,4.984 C186.610668,5.0373336 186.801332,5.10266628 186.98,5.18 C187.158668,5.25733372 187.315999,5.35333276 187.452,5.468 C187.588001,5.58266724 187.694666,5.72266584 187.772,5.888 C187.849334,6.05333416 187.888,6.25333216 187.888,6.488 C187.888,6.55200032 187.881333,6.6373328 187.868,6.744 C187.854667,6.8506672 187.822667,6.9639994 187.772,7.084 C187.721333,7.2040006 187.649334,7.32533272 187.556,7.448 C187.462666,7.57066728 187.334667,7.68133284 187.172,7.78 C187.009333,7.87866716 186.808001,7.95866636 186.568,8.02 C186.327999,8.08133364 186.040002,8.112 185.704,8.112 C185.367998,8.112 185.056001,8.07333372 184.768,7.996 C184.479999,7.91866628 184.234668,7.8000008 184.032,7.64 C183.829332,7.4799992 183.673334,7.27466792 183.564,7.024 C183.454666,6.77333208 183.408,6.47200176 183.424,6.12 L183.968,6.12 Z M191.568,5.168 C191.498666,4.85866512 191.370668,4.61600088 191.184,4.44 C190.997332,4.26399912 190.736002,4.176 190.4,4.176 C190.159999,4.176 189.949334,4.22666616 189.768,4.328 C189.586666,4.42933384 189.436001,4.56266584 189.316,4.728 C189.195999,4.89333416 189.105334,5.08133228 189.044,5.292 C188.982666,5.50266772 188.952,5.71733224 188.952,5.936 C188.952,6.15466776 188.982666,6.36933228 189.044,6.58 C189.105334,6.79066772 189.195999,6.97866584 189.316,7.144 C189.436001,7.30933416 189.586666,7.44266616 189.768,7.544 C189.949334,7.64533384 190.159999,7.696 190.4,7.696 C190.554667,7.696 190.701333,7.66666696 190.84,7.608 C190.978667,7.54933304 191.101333,7.46800052 191.208,7.364 C191.314667,7.25999948 191.402666,7.13600072 191.472,6.992 C191.541334,6.84799928 191.584,6.69066752 191.6,6.52 L192.104,6.52 C192.034666,7.02133584 191.850668,7.4119986 191.552,7.692 C191.253332,7.9720014 190.869336,8.112 190.4,8.112 C190.085332,8.112 189.806668,8.05466724 189.564,7.94 C189.321332,7.82533276 189.117334,7.66933432 188.952,7.472 C188.786666,7.27466568 188.661334,7.04400132 188.576,6.78 C188.490666,6.51599868 188.448,6.23466816 188.448,5.936 C188.448,5.63733184 188.490666,5.35600132 188.576,5.092 C188.661334,4.82799868 188.786666,4.59733432 188.952,4.4 C189.117334,4.20266568 189.321332,4.04533392 189.564,3.928 C189.806668,3.81066608 190.085332,3.752 190.4,3.752 C190.842669,3.752 191.217332,3.86933216 191.524,4.104 C191.830668,4.33866784 192.013333,4.69333096 192.072,5.168 L191.568,5.168 Z M192.8,2.288 L193.304,2.288 L193.304,4.584 L193.32,4.584 C193.416,4.33333208 193.586665,4.13200076 193.832,3.98 C194.077335,3.82799924 194.346665,3.752 194.64,3.752 C194.928001,3.752 195.169332,3.78933296 195.364,3.864 C195.558668,3.93866704 195.714666,4.04399932 195.832,4.18 C195.949334,4.31600068 196.032,4.48266568 196.08,4.68 C196.128,4.87733432 196.152,5.09866544 196.152,5.344 L196.152,8 L195.648,8 L195.648,5.424 C195.648,5.24799912 195.632,5.08400076 195.6,4.932 C195.568,4.77999924 195.512,4.64800056 195.432,4.536 C195.352,4.42399944 195.244001,4.33600032 195.108,4.272 C194.971999,4.20799968 194.802668,4.176 194.6,4.176 C194.397332,4.176 194.217334,4.21199964 194.06,4.284 C193.902666,4.35600036 193.769334,4.45466604 193.66,4.58 C193.550666,4.70533396 193.465334,4.8546658 193.404,5.028 C193.342666,5.2013342 193.309333,5.38933232 193.304,5.592 L193.304,8 L192.8,8 L192.8,2.288 Z M198.848,4.176 C198.607999,4.176 198.397334,4.22666616 198.216,4.328 C198.034666,4.42933384 197.884001,4.56266584 197.764,4.728 C197.643999,4.89333416 197.553334,5.08133228 197.492,5.292 C197.430666,5.50266772 197.4,5.71733224 197.4,5.936 C197.4,6.15466776 197.430666,6.36933228 197.492,6.58 C197.553334,6.79066772 197.643999,6.97866584 197.764,7.144 C197.884001,7.30933416 198.034666,7.44266616 198.216,7.544 C198.397334,7.64533384 198.607999,7.696 198.848,7.696 C199.088001,7.696 199.298666,7.64533384 199.48,7.544 C199.661334,7.44266616 199.811999,7.30933416 199.932,7.144 C200.052001,6.97866584 200.142666,6.79066772 200.204,6.58 C200.265334,6.36933228 200.296,6.15466776 200.296,5.936 C200.296,5.71733224 200.265334,5.50266772 200.204,5.292 C200.142666,5.08133228 200.052001,4.89333416 199.932,4.728 C199.811999,4.56266584 199.661334,4.42933384 199.48,4.328 C199.298666,4.22666616 199.088001,4.176 198.848,4.176 Z M198.848,3.752 C199.162668,3.752 199.441332,3.81066608 199.684,3.928 C199.926668,4.04533392 200.130666,4.20266568 200.296,4.4 C200.461334,4.59733432 200.586666,4.82799868 200.672,5.092 C200.757334,5.35600132 200.8,5.63733184 200.8,5.936 C200.8,6.23466816 200.757334,6.51599868 200.672,6.78 C200.586666,7.04400132 200.461334,7.27466568 200.296,7.472 C200.130666,7.66933432 199.926668,7.82533276 199.684,7.94 C199.441332,8.05466724 199.162668,8.112 198.848,8.112 C198.533332,8.112 198.254668,8.05466724 198.012,7.94 C197.769332,7.82533276 197.565334,7.66933432 197.4,7.472 C197.234666,7.27466568 197.109334,7.04400132 197.024,6.78 C196.938666,6.51599868 196.896,6.23466816 196.896,5.936 C196.896,5.63733184 196.938666,5.35600132 197.024,5.092 C197.109334,4.82799868 197.234666,4.59733432 197.4,4.4 C197.565334,4.20266568 197.769332,4.04533392 198.012,3.928 C198.254668,3.81066608 198.533332,3.752 198.848,3.752 Z M203.296,4.176 C203.055999,4.176 202.845334,4.22666616 202.664,4.328 C202.482666,4.42933384 202.332001,4.56266584 202.212,4.728 C202.091999,4.89333416 202.001334,5.08133228 201.94,5.292 C201.878666,5.50266772 201.848,5.71733224 201.848,5.936 C201.848,6.15466776 201.878666,6.36933228 201.94,6.58 C202.001334,6.79066772 202.091999,6.97866584 202.212,7.144 C202.332001,7.30933416 202.482666,7.44266616 202.664,7.544 C202.845334,7.64533384 203.055999,7.696 203.296,7.696 C203.536001,7.696 203.746666,7.64533384 203.928,7.544 C204.109334,7.44266616 204.259999,7.30933416 204.38,7.144 C204.500001,6.97866584 204.590666,6.79066772 204.652,6.58 C204.713334,6.36933228 204.744,6.15466776 204.744,5.936 C204.744,5.71733224 204.713334,5.50266772 204.652,5.292 C204.590666,5.08133228 204.500001,4.89333416 204.38,4.728 C204.259999,4.56266584 204.109334,4.42933384 203.928,4.328 C203.746666,4.22666616 203.536001,4.176 203.296,4.176 Z M203.296,3.752 C203.610668,3.752 203.889332,3.81066608 204.132,3.928 C204.374668,4.04533392 204.578666,4.20266568 204.744,4.4 C204.909334,4.59733432 205.034666,4.82799868 205.12,5.092 C205.205334,5.35600132 205.248,5.63733184 205.248,5.936 C205.248,6.23466816 205.205334,6.51599868 205.12,6.78 C205.034666,7.04400132 204.909334,7.27466568 204.744,7.472 C204.578666,7.66933432 204.374668,7.82533276 204.132,7.94 C203.889332,8.05466724 203.610668,8.112 203.296,8.112 C202.981332,8.112 202.702668,8.05466724 202.46,7.94 C202.217332,7.82533276 202.013334,7.66933432 201.848,7.472 C201.682666,7.27466568 201.557334,7.04400132 201.472,6.78 C201.386666,6.51599868 201.344,6.23466816 201.344,5.936 C201.344,5.63733184 201.386666,5.35600132 201.472,5.092 C201.557334,4.82799868 201.682666,4.59733432 201.848,4.4 C202.013334,4.20266568 202.217332,4.04533392 202.46,3.928 C202.702668,3.81066608 202.981332,3.752 203.296,3.752 Z M206.008,2.288 L206.512,2.288 L206.512,8 L206.008,8 L206.008,2.288 Z" id="School" fill="#FFFFFF" fill-rule="nonzero"></path>
            <text id="Important-life-event" font-family="HelveticaNeue-Light, Helvetica Neue" font-size="8" font-weight="300" fill="#FFFFFF">
                <tspan x="247.664" y="8.288">Important life events</tspan>
            </text>
        </g>
        <path d="" id="Path-2" stroke="#979797"></path>
        <circle id="Oval-Copy-10" stroke="#C7F464" stroke-width="1.6" fill="#FFFFFF" cx="129" cy="125" r="5.2"></circle>
        <path d="M296,109 L296,124" id="Line-3" stroke="#8DD1F0" stroke-width="1.6" stroke-linecap="square"></path>
        <path d="M69,109 L69,124" id="Line-3-Copy" stroke="#8DD1F0" stroke-width="1.6" stroke-linecap="square"></path>
        <path d="M514,109 L514,124" id="Line-3-Copy-2" stroke="#8DD1F0" stroke-width="1.6" stroke-linecap="square"></path>
        <text id="2007" font-family="Helvetica" font-size="10" font-weight="normal" fill="#FFFFFF">
            <tspan x="285" y="105">2007</tspan>
        </text>
        <text id="2008" font-family="Helvetica" font-size="10" font-weight="normal" fill="#FFFFFF">
            <tspan x="502" y="105">2008</tspan>
        </text>
        <path d="M296,229 L296,244" id="Line-3" stroke="#8DD1F0" stroke-width="1.6" stroke-linecap="square"></path>
        <path d="M67,297 L67,312" id="Line-3-Copy" stroke="#8DD1F0" stroke-width="1.6" stroke-linecap="square" transform="translate(67.000000, 304.500000) rotate(90.000000) translate(-67.000000, -304.500000) "></path>
        <path d="M64,537 L64,552" id="Line-3-Copy" stroke="#8DD1F0" stroke-width="1.6" stroke-linecap="square" transform="translate(64.000000, 544.500000) rotate(90.000000) translate(-64.000000, -544.500000) "></path>
        <path d="M721,178 L721,193" id="Line-3-Copy-3" stroke="#8DD1F0" stroke-width="1.6" stroke-linecap="square" transform="translate(721.000000, 185.500000) rotate(90.000000) translate(-721.000000, -185.500000) "></path>
        <path d="M721,417 L721,432" id="Line-3-Copy-8" stroke="#8DD1F0" stroke-width="1.6" stroke-linecap="square" transform="translate(721.000000, 424.500000) rotate(90.000000) translate(-721.000000, -424.500000) "></path>
        <path d="M514,229 L514,244" id="Line-3-Copy-2" stroke="#8DD1F0" stroke-width="1.6" stroke-linecap="square"></path>
        <path d="M296,349 L296,364" id="Line-3" stroke="#8DD1F0" stroke-width="1.6" stroke-linecap="square"></path>
        <path d="M296,468 L296,483" id="Line-3" stroke="#8DD1F0" stroke-width="1.6" stroke-linecap="square"></path>
        <path d="M514,349 L514,364" id="Line-3-Copy-2" stroke="#8DD1F0" stroke-width="1.6" stroke-linecap="square"></path>
        <text id="2011" font-family="Helvetica" font-size="10" font-weight="normal" fill="#FFFFFF">
            <tspan x="285" y="224">2011</tspan>
        </text>
        <text id="2010" font-family="Helvetica" font-size="10" font-weight="normal" fill="#FFFFFF">
            <tspan x="504" y="226">2010</tspan>
        </text>
        <text id="2013" font-family="Helvetica" font-size="10" font-weight="normal" fill="#FFFFFF">
            <tspan x="285" y="345">2013</tspan>
        </text>
        <text id="2014" font-family="Helvetica" font-size="10" font-weight="normal" fill="#FFFFFF">
            <tspan x="503" y="346">2014</tspan>
        </text>
        <path d="M514,468 L514,483" id="Line-3-Copy-2" stroke="#8DD1F0" stroke-width="1.6" stroke-linecap="square"></path>
        <text id="2017" font-family="Helvetica" font-size="10" font-weight="normal" fill="#FFFFFF">
            <tspan x="285" y="464">2017</tspan>
        </text>
        <path d="M296,588 L296,603" id="Line-3" stroke="#8DD1F0" stroke-width="1.6" stroke-linecap="square"></path>
        <path d="M296,557 L296,572" id="Line-3" stroke="#8DD1F0" stroke-width="1.6" stroke-linecap="square"></path>
        <text id="2019" font-family="HelveticaNeue-Light, Helvetica Neue" font-size="10" font-weight="300" fill="#FFFFFF">
            <tspan x="285" y="584">2019</tspan>
        </text>
        <text id="2018" font-family="Helvetica" font-size="10" font-weight="normal" fill="#FFFFFF">
            <tspan x="28" y="548">2018</tspan>
        </text>
        <text id="2016" font-family="Helvetica" font-size="10" font-weight="normal" fill="#FFFFFF">
            <tspan x="503" y="465">2016</tspan>
        </text>
        <circle id="Oval-Copy-5" stroke="#FF6B6A" stroke-width="1.6" fill="#FFFFFF" cx="395" cy="245" r="5.2"></circle>
        <circle id="Oval-Copy-11" stroke="#8DD1F0" stroke-width="1.6" fill="#FFFFFF" cx="69" cy="125" r="5.2"></circle>
        <circle id="Oval-Copy-8" stroke="#C7F464" stroke-width="1.6" fill="#FFFFFF" cx="441" cy="245" r="5.2"></circle>
        <g id="Group" transform="translate(249.000000, 590.500000) scale(1, -1) translate(-249.000000, -590.500000) translate(243.000000, 569.000000)" stroke="#FFEA4E" stroke-width="1.6">
            <path d="M6,42.4 L6,8" id="Line-Copy-10" stroke-linecap="square" transform="translate(6.000000, 25.200000) scale(-1, -1) translate(-6.000000, -25.200000) "></path>
            <circle id="Oval-Copy-7" fill="#FFFFFF" cx="6" cy="6" r="5.2"></circle>
        </g>
        <text id="Content-Strategy-at" font-family="HelveticaNeue-Light, Helvetica Neue" font-size="10" font-weight="300" fill="#FFFFFF">
            <tspan x="214.55" y="533">Content </tspan>
            <tspan x="202.13" y="545">Strategy at  </tspan>
            <tspan x="210.49" y="557" font-family="HelveticaNeue-Bold, Helvetica Neue" font-weight="bold">GoodRx</tspan>
        </text>
        <text id="Daily-UX-Writing-Cha" font-family="HelveticaNeue-Light, Helvetica Neue" font-size="10" font-weight="300" fill="#FFFFFF">
            <tspan x="245.26" y="653">Daily UX</tspan>
            <tspan x="251.19" y="665">Writing</tspan>
            <tspan x="238.39" y="677">Challenge</tspan>
        </text>
        <path d="M141,544 L132.935435,544 C103.147717,544 79,568.176624 79,598 L79,598" id="Path" stroke="#CE8F26" stroke-dasharray="4" fill-rule="nonzero" transform="translate(110.000000, 571.000000) scale(1, -1) translate(-110.000000, -571.000000) "></path>
        <g id="Path-4" stroke-dasharray="4" fill-rule="nonzero">
            <use fill="black" fill-opacity="1" filter="url(#filter-2)" xlink:href="#path-1"></use>
            <use stroke="#CE8F26" stroke-width="1" xlink:href="#path-1"></use>
        </g>
        <g id="Path-6" fill-rule="nonzero">
            <use fill="black" fill-opacity="1" filter="url(#filter-4)" xlink:href="#path-3"></use>
            <use stroke="#FFEA4E" stroke-width="2" xlink:href="#path-3"></use>
        </g>
        <g id="Path-6" fill-rule="nonzero">
            <use fill="black" fill-opacity="1" filter="url(#filter-6)" xlink:href="#path-5"></use>
            <use stroke="#F5A623" stroke-width="2" xlink:href="#path-5"></use>
        </g>
        <text id="And-that-brings-us-u" font-family="HelveticaNeue, Helvetica Neue" font-size="10" font-weight="normal" line-spacing="12">
            <tspan x="434" y="625" fill="#FFFFFF">And that brings us up to today. </tspan>
            <tspan x="434" y="637" fill="#FFFFFF">Right now. Right this very second.</tspan>
            <tspan x="586.98" y="637" fill="#343434"></tspan>
            <tspan x="434" y="649" fill="#8DD1F0">This is us. </tspan>
            <tspan x="481.42" y="649" fill="#FFFFFF">Cool, right?</tspan>
        </text>
        <g id="Group-3" transform="translate(383.500000, 605.500000) scale(-1, -1) translate(-383.500000, -605.500000) translate(377.000000, 599.000000)" fill="#FFFFFF" stroke="#8DD1F0" stroke-width="1.6">
            <circle id="Oval-Copy-13" cx="6.21054687" cy="6.12059437" r="5.2"></circle>
        </g>
        <g id="Group-3" transform="translate(295.500000, 604.500000) scale(-1, -1) translate(-295.500000, -604.500000) translate(289.000000, 598.000000)" fill="#FFFFFF" stroke="#8DD1F0" stroke-width="1.6">
            <circle id="Oval-Copy-13" cx="6.21054687" cy="6.12059437" r="5.2"></circle>
        </g>
        <g id="Group-3" transform="translate(296.000000, 552.000000) scale(-1, -1) translate(-296.000000, -552.000000) translate(291.000000, 547.000000)" fill="#FFFFFF" stroke="#8DD1F0" stroke-width="1.6">
            <circle id="Oval-Copy-13" cx="4.77734375" cy="4.70814951" r="3.81538462"></circle>
        </g>
        <g id="married-icon" transform="translate(77.964844, 494.111328) rotate(-48.000000) translate(-77.964844, -494.111328) translate(72.964844, 481.611328)" stroke="#8DD1F0" stroke-width="1.6">
            <path d="M5,10 L5,25" id="Line-3" stroke-linecap="square"></path>
            <g id="Group-3" transform="translate(5.000000, 5.000000) scale(-1, -1) translate(-5.000000, -5.000000) " fill="#FFFFFF">
                <circle id="Oval-Copy-13" cx="4.77734375" cy="4.70814951" r="3.81538462"></circle>
            </g>
        </g>
        <circle id="Oval-Copy-13" stroke="#F5A623" stroke-width="2" fill="#FFFFFF" transform="translate(281.000000, 602.000000) scale(-1, -1) translate(-281.000000, -602.000000) " cx="281" cy="602" r="5"></circle>
        <g id="Path-7" fill-rule="nonzero">
            <use fill="black" fill-opacity="1" filter="url(#filter-8)" xlink:href="#path-7"></use>
            <use stroke="#8DD1F0" stroke-width="1.6" xlink:href="#path-7"></use>
        </g>
        <g id="Path-8" fill-rule="nonzero">
            <use fill="black" fill-opacity="1" filter="url(#filter-10)" xlink:href="#path-9"></use>
            <use stroke="#F5A623" stroke-width="2" xlink:href="#path-9"></use>
        </g>
        <g id="Group-3" transform="translate(426.000000, 645.000000) scale(-1, -1) translate(-426.000000, -645.000000) translate(421.000000, 640.000000)" fill="#FFFFFF" stroke="#8DD1F0" stroke-width="1.6">
            <circle id="Oval-Copy-13" cx="4.77734375" cy="4.70814951" r="3.81538462"></circle>
        </g>
        <text id="Has-First-Child" font-family="HelveticaNeue, Helvetica Neue" font-size="6" font-weight="normal" fill="#FFFFFF">
            <tspan x="293" y="535">Has</tspan>
            <tspan x="293" y="542" font-family="HelveticaNeue-Bold, Helvetica Neue" font-weight="bold">First</tspan>
            <tspan x="305.774" y="542"> Child</tspan>
        </text>
        <text id="Gets-Married" font-family="HelveticaNeue, Helvetica Neue" font-size="6" font-weight="normal" fill="#FFFFFF">
            <tspan x="67" y="470">Gets</tspan>
            <tspan x="67" y="477" font-family="HelveticaNeue-Bold, Helvetica Neue" font-weight="bold">Married</tspan>
        </text>
    </g>
</svg>